<?xml version="1.0" encoding="UTF-8" standalone="no"?>
<!-- Created with Inkscape (http://www.inkscape.org/) -->

<svg
   xmlns:dc="http://purl.org/dc/elements/1.1/"
   xmlns:cc="http://creativecommons.org/ns#"
   xmlns:rdf="http://www.w3.org/1999/02/22-rdf-syntax-ns#"
   xmlns:svg="http://www.w3.org/2000/svg"
   xmlns="http://www.w3.org/2000/svg"
   xmlns:sodipodi="http://sodipodi.sourceforge.net/DTD/sodipodi-0.dtd"
   xmlns:inkscape="http://www.inkscape.org/namespaces/inkscape"
   width="210mm"
   height="297mm"
   viewBox="0 0 744.09448819 1052.3622047"
   id="svg2"
   version="1.1"
   inkscape:version="0.91 r13725"
   sodipodi:docname="elephant.svg"
   inkscape:export-filename="/home/khada/Pictures/pabloconcept.png"
   inkscape:export-xdpi="2400"
   inkscape:export-ydpi="2400">
  <defs
     id="defs4" />
  <sodipodi:namedview
     id="base"
     pagecolor="#ffffff"
     bordercolor="#666666"
     borderopacity="1.0"
     inkscape:pageopacity="0.0"
     inkscape:pageshadow="2"
     inkscape:zoom="0.35"
     inkscape:cx="375"
     inkscape:cy="520"
     inkscape:document-units="px"
     inkscape:current-layer="layer1"
     showgrid="false"
     inkscape:window-width="1920"
     inkscape:window-height="1015"
     inkscape:window-x="0"
     inkscape:window-y="0"
     inkscape:window-maximized="1" />
  <metadata
     id="metadata7">
    <rdf:RDF>
      <cc:Work
         rdf:about="">
        <dc:format>image/svg+xml</dc:format>
        <dc:type
           rdf:resource="http://purl.org/dc/dcmitype/StillImage" />
      </cc:Work>
    </rdf:RDF>
  </metadata>
  <g
     inkscape:label="Layer 1"
     inkscape:groupmode="layer"
     id="layer1">
    <path
       sodipodi:type="spiral"
       style="fill:none;fill-rule:evenodd;stroke:#000000;stroke-width:1px;stroke-linecap:butt;stroke-linejoin:miter;stroke-opacity:1"
       id="path3377"
       sodipodi:cx="188.57143"
       sodipodi:cy="269.50507"
       sodipodi:expansion="1"
       sodipodi:revolution="3"
       sodipodi:radius="856.69037"
       sodipodi:argument="-17.705111"
       sodipodi:t0="0"
       d="m 188.57143,269.50507 c 17.7633,39.10796 -43.95298,43.23906 -65.00002,29.52377 C 66.535227,261.86125 86.444509,178.40961 129.52387,139.50503 206.58275,69.91388 326.3275,103.31521 383.57148,180.93374 467.57931,294.84205 419.20114,455.1015 306.66653,529.50513 156.6756,628.67347 -45.303323,564.75952 -136.42866,417.12395 -251.10059,231.33964 -171.40834,-12.861409 11.428771,-120.49503 232.86901,-250.85377 519.55077,-155.25915 643.57154,62.838635 789.72573,319.85933 678.15738,649.17295 424.76163,789.5052 132.20621,951.52433 -239.8355,823.93762 -396.42872,535.21905 -574.35989,207.15866 -430.72507,-207.67634 -106.66633,-380.4951 260.00627,-576.0396 712.89938,-417.81245 903.57161,-55.256469 1115.2277,347.19957 941.08719,842.50959 542.85674,1049.5053" />
    <flowRoot
       xml:space="preserve"
       id="flowRoot3379"
       style="font-style:normal;font-weight:normal;font-size:40px;line-height:125%;font-family:sans-serif;letter-spacing:0px;word-spacing:0px;fill:#000000;fill-opacity:1;stroke:none;stroke-width:1px;stroke-linecap:butt;stroke-linejoin:miter;stroke-opacity:1"><flowRegion
         id="flowRegion3381"><rect
           id="rect3383"
           width="622.85712"
           height="568.57141"
           x="77.14286"
           y="55.219349" /></flowRegion><flowPara
         id="flowPara3385">The life of Pablo</flowPara></flowRoot>    <path
       style="fill:none;fill-rule:evenodd;stroke:#000000;stroke-width:1px;stroke-linecap:butt;stroke-linejoin:miter;stroke-opacity:1"
       d="m 88.571429,938.07649 c -3.809524,-2.85714 -7.345272,-6.12145 -11.428572,-8.57143 -0.81666,-0.48999 -1.904762,0 -2.857143,0 -1.904762,0 -3.90727,-0.60234 -5.714285,0 -0.354934,0.11831 -8.326344,8.08126 -8.571429,8.57143 -0.425918,0.85184 0.673435,2.18371 0,2.85714 -3.809524,3.80953 -2.7416,-6.06091 -5.714286,2.85715 -0.602338,1.80701 0.602339,3.90727 0,5.71428 -2.972686,8.91806 -1.904762,-0.95238 -5.714285,2.85714 -0.673435,0.67344 0,1.90477 0,2.85715 0,0.95238 0,1.90476 0,2.85714 0,8.57143 0,17.14286 0,25.71429 0,4.7619 0,9.52381 0,14.28571 0,0.95238 -0.673435,2.18371 0,2.85711 1.505846,1.5059 3.942361,1.6759 5.714285,2.8572 2.241328,1.4942 3.304932,4.5096 5.714286,5.7143 0.851835,0.4259 2.183708,-0.6735 2.857143,0 5.91153,5.9115 -9.033601,-0.2311 2.857143,5.7142 0.851835,0.426 2.183708,-0.6734 2.857143,0 5.91153,5.9116 -9.033602,-0.231 2.857142,5.7143 1.132834,0.5665 7.987325,-0.5841 8.571429,0 1.34687,1.3469 -1.34687,4.3674 0,5.7143 0.673435,0.6735 1.904762,0 2.857143,0 1.494058,0 10.67731,0.3756 11.428571,0 1.204677,-0.6023 1.904762,-1.9047 2.857143,-2.8571"
       id="path3387"
       inkscape:connector-curvature="0" />
    <path
       style="fill:none;fill-rule:evenodd;stroke:#000000;stroke-width:1px;stroke-linecap:butt;stroke-linejoin:miter;stroke-opacity:1"
       d="m 165.71429,935.21935 c -16.05425,-6.4217 -9.15699,-5.71429 -20,-5.71429 -1.90477,0 -3.90727,-0.60234 -5.71429,0 -2.55551,0.85184 -3.30493,4.50961 -5.71429,5.71429 -1.70367,0.85183 -4.01061,-0.85184 -5.71428,0 -11.89075,5.94537 3.05439,-0.19725 -2.85714,5.71428 -5.91153,5.91153 0.23108,-9.0336 -5.71429,2.85715 -0.56642,1.13283 0.5841,7.98732 0,8.57142 -1.34687,1.34687 -4.36742,-1.34687 -5.71429,0 -0.67343,0.67344 0,1.90477 0,2.85715 0,4.7619 0,9.52381 0,14.28571 0,6.66667 0,13.33334 0,20 0,0.95238 0,1.90476 0,2.85714 0,0.95239 -0.42591,2.00531 0,2.85715 5.94538,11.89075 -0.19724,-3.05439 5.71429,2.85714 5.91153,5.91151 -9.0336,-0.23109 2.85714,5.71431 1.70367,0.8518 4.01062,-0.8519 5.71429,0 2.40935,1.2047 3.15878,4.8624 5.71428,5.7143 1.62532,0.5417 11.59475,0 14.28572,0 1.52632,0 13.46799,0.4088 14.28571,0 11.89075,-5.9454 -3.05438,0.1972 2.85715,-5.7143 0.67343,-0.6735 2.0053,0.4259 2.85714,0 2.40935,-1.2047 3.30493,-4.50963 5.71428,-5.71431 0.85184,-0.42592 2.18371,0.67344 2.85715,0 0.67343,-0.67343 -0.42592,-2.00531 0,-2.85714 1.20467,-2.40936 4.50961,-3.30493 5.71428,-5.71429 0.37563,-0.75126 0,-9.93451 0,-11.42857 0,-7.61905 0,-15.23809 0,-22.85714 0,-0.67895 0.32019,-10.7882 0,-11.42857 -0.60234,-1.20468 -1.65246,-2.25481 -2.85714,-2.85715 -0.85184,-0.42591 -2.18371,0.67344 -2.85714,0 -0.67344,-0.67343 0.85183,-2.43122 0,-2.85714 -3.51221,-1.7561 -8.65193,-0.0805 -11.42857,-2.85714 -2.77665,-2.77665 -0.50109,-8.28716 -2.85715,-11.42857 -1.14285,-1.52381 -3.90727,0.60233 -5.71428,0 -8.91806,-2.97269 0.95238,-1.90477 -2.85715,-5.71429 -0.11497,-0.11497 -10.37932,0 -11.42857,0"
       id="path3389"
       inkscape:connector-curvature="0" />
    <path
       style="fill:none;fill-rule:evenodd;stroke:#000000;stroke-width:1px;stroke-linecap:butt;stroke-linejoin:miter;stroke-opacity:1"
       d="m 197.14286,926.64792 c 12.04253,2.29055 0.68538,9.94219 2.85714,14.28571 5.94537,11.89075 -0.19724,-3.05438 5.71429,2.85715 0.67343,0.67343 0,1.90476 0,2.85714 0,1.82922 -0.32359,16.65748 0,17.14286 9.47595,14.21392 1.31302,0.65651 11.42857,5.71428 0.39146,0.19573 0,8.46021 0,11.42857 0,4.76191 0,9.52381 0,14.28572 0,1.90476 -0.60234,3.90727 0,5.71425 0.85183,2.5555 4.86245,3.1588 5.71428,5.7143 0.43597,1.3079 0,12.691 0,14.2857 0,0.9524 0.67344,-2.1837 0,-2.8571 -1.34687,-1.3469 -4.36741,1.3469 -5.71428,0 -1.00292,-1.0029 0.98676,-12.3122 0,-14.2857 -1.20468,-2.4094 -4.86245,-3.1588 -5.71429,-5.71431 -1.20468,-3.61403 1.20468,-7.81454 0,-11.42857 -1.8394,-5.5182 -4.85434,-0.9986 -8.57143,-2.85714 -0.85183,-0.42592 0,-1.90477 0,-2.85715 0,-2.419 0.51201,-9.89255 0,-11.42857 -0.85183,-2.5555 -4.50961,-3.30493 -5.71428,-5.71428 -0.42592,-0.85184 0,-1.90477 0,-2.85715 0,-0.95238 0,-1.90476 0,-2.85714 0,-6.66667 0,-13.33333 0,-20 0,-3.80952 -2.11315,-8.25886 0,-11.42857 2.36256,-3.54385 7.47402,-4.13247 11.42857,-5.71429 2.65788,-1.06315 7.21276,1.95137 8.57143,2.85715 1.12066,0.74711 1.65246,2.2548 2.85714,2.85714 3.94102,1.97051 2.55564,-3.46016 5.71429,2.85714 0.42591,0.85184 -0.67344,2.18371 0,2.85714 0.67343,0.67344 2.0053,-0.42591 2.85714,0 2.40935,1.20468 3.30493,4.50961 5.71428,5.71429 3.05854,1.52927 6.09737,-2.47406 11.42858,2.85714 0.67343,0.67344 -0.42592,2.00531 0,2.85715 2.95384,5.90769 2.76044,-0.19341 5.71428,5.71428 0.42592,0.85184 -0.42592,2.00531 0,2.85714 5.94537,11.89075 -0.19724,-3.05438 5.71429,2.85715 0.68751,0.68751 -0.68752,10.74105 0,11.42857 1.34687,1.34687 4.36741,-1.34687 5.71428,0 0.67344,0.67343 -0.42591,2.00531 0,2.85714 1.44906,2.89812 4.26523,2.81617 5.71429,5.71429 0.89789,1.79578 -0.89789,9.63279 0,11.42857 1.20468,2.40935 4.86245,3.15878 5.71428,5.71428 1.30038,3.90113 -1.30037,13.2417 0,17.1429 0.42592,1.2777 1.90477,1.9047 2.85715,2.8571"
       id="path3391"
       inkscape:connector-curvature="0" />
    <path
       style="fill:none;fill-rule:evenodd;stroke:#000000;stroke-width:1px;stroke-linecap:butt;stroke-linejoin:miter;stroke-opacity:1"
       d="m 374.28571,929.50506 c -4.7619,-2.85714 -9.0174,-6.81532 -14.28571,-8.57143 -4.45903,-1.48634 -2.20063,5.05777 -2.85714,5.71429 -0.87591,0.87591 -13.40273,-0.88299 -14.28572,0 -1.50584,1.50585 -1.67586,3.94236 -2.85714,5.71428 -1.49422,2.24133 -4.50961,3.30494 -5.71429,5.71429 -0.42591,0.85184 0.42592,2.00531 0,2.85714 -1.20467,2.40936 -4.5096,3.30493 -5.71428,5.71429 -0.42592,0.85183 0.67343,2.18371 0,2.85714 -0.67344,0.67344 -2.00531,-0.42592 -2.85714,0 -2.40936,1.20468 -3.30494,4.50961 -5.71429,5.71429 -0.85184,0.42592 -2.18371,-0.67344 -2.85714,0 -0.12949,0.12949 0,12.93858 0,14.28571 0,10.47619 0,20.95238 0,31.42854 0,1.9873 -0.51662,13.2525 0,14.2857 1.20467,2.4094 4.22006,3.473 5.71428,5.7143 1.18129,1.772 1.67586,3.9424 2.85715,5.7143 0.7471,1.1207 2.2548,1.6525 2.85714,2.8572 0.85183,1.7036 -1.34687,4.3674 0,5.7142 0.67343,0.6735 1.90476,0 2.85714,0 0.95238,0 1.90476,0 2.85714,0 10.47619,0 20.95239,0 31.42858,0 2.419,0 9.89255,0.5121 11.42857,0 8.91806,-2.9726 -0.95238,-1.9047 2.85714,-5.7142 0.67344,-0.6735 2.00531,0.4259 2.85714,0 11.89075,-5.9454 -3.05438,0.1972 2.85715,-5.7143 0.67343,-0.6735 2.0053,0.4259 2.85714,0 11.89074,-5.9454 -3.05439,0.1972 2.85714,-5.7143 0.67344,-0.6734 1.90476,0 2.85714,0 0.95239,0 1.90477,0 2.85715,0"
       id="path3395"
       inkscape:connector-curvature="0" />
    <path
       style="fill:none;fill-rule:evenodd;stroke:#000000;stroke-width:1px;stroke-linecap:butt;stroke-linejoin:miter;stroke-opacity:1"
       d="m 434.28571,958.07649 c 3.80953,0 7.73279,-0.92394 11.42858,0 1.84789,0.46197 -1.34687,4.36742 0,5.71429 0.76385,0.76385 12.46323,-0.91124 14.28571,0 4.76327,2.38163 1.29097,5.71428 8.57143,5.71428 2.95576,0 3.949,0.67344 5.71428,-2.85714 0.42592,-0.85184 -0.67343,-2.18371 0,-2.85714 0.67344,-0.67344 2.00531,0.42591 2.85715,0 2.40935,-1.20468 3.30493,-4.50961 5.71428,-5.71429 0.85184,-0.42592 2.18371,0.67344 2.85715,0 5.91153,-5.91153 -9.03361,0.23109 2.85714,-5.71429 0.85183,-0.42591 2.18371,0.67344 2.85714,0 0.58411,-0.5841 -0.56642,-7.43859 0,-8.57142 5.94537,-11.89075 -0.19724,3.05438 5.71429,-2.85715 0.67343,-0.67343 0,-1.90476 0,-2.85714 0,-0.95238 0,-1.90476 0,-2.85714 0,-6.66667 0,-13.33334 0,-20 0,-1.90476 0.60234,-3.90727 0,-5.71429 -2.97269,-8.91806 -1.90476,0.95238 -5.71429,-2.85714 -1.34687,-1.34687 1.34687,-4.36742 0,-5.71429 -0.67343,-0.67343 -1.90476,0 -2.85714,0 -0.95238,0 -2.18371,-0.67343 -2.85714,0 -5.91153,5.91153 9.0336,-0.23108 -2.85715,5.71429 -1.70367,0.85183 -4.01061,-0.85184 -5.71428,0 -11.89075,5.94537 3.05438,-0.19725 -2.85715,5.71428 -0.67343,0.67344 -2.0053,-0.42591 -2.85714,0 -3.53058,1.76529 -2.85714,2.75853 -2.85714,5.71429 0,0.95238 0.42592,2.00531 0,2.85714 -1.40576,2.81151 -10.02282,8.61706 -11.42857,11.42857 -0.42592,0.85184 0.67343,2.18371 0,2.85715 -3.80953,3.80952 -2.7416,-6.06092 -5.71429,2.85714 -2.05714,6.17143 2.05714,5.25714 0,11.42857 -0.85183,2.55551 -4.86245,3.15878 -5.71428,5.71429 -0.60234,1.80701 0,3.80952 0,5.71428 0,5.71429 0,11.42857 0,17.14286 0,5.71429 0,11.42857 0,17.14286 0,1.90476 -0.60234,3.90727 0,5.71425 2.97268,8.9181 1.90476,-0.95235 5.71428,2.8572 0.68752,0.6875 -0.68752,10.741 0,11.4285 0.67344,0.6735 2.00531,-0.4259 2.85714,0 6.3173,3.1587 0.88664,1.7733 2.85715,5.7143 2.304,4.608 3.41028,1.1063 5.71428,5.7143 0.85184,1.7037 -1.34687,4.3674 0,5.7143 0.67344,0.6734 1.95364,-0.3012 2.85715,0 4.04061,1.3469 7.38796,4.3674 11.42857,5.7143 1.5463,0.5154 10.45521,0 11.42857,0 1.90476,0 3.80952,0 5.71428,0 1.90477,0 3.90727,0.6023 5.71429,0 2.55551,-0.8518 3.30493,-4.5096 5.71429,-5.7143 0.85183,-0.4259 2.1837,0.6734 2.85714,0 5.91153,-5.9115 -9.0336,0.2311 2.85714,-5.7143 0.85184,-0.4259 2.18371,0.6735 2.85714,0 1.34687,-1.3469 -1.34687,-4.3674 0,-5.7143 0.0919,-0.092 7.8785,0 8.57143,0"
       id="path3397"
       inkscape:connector-curvature="0" />
    <path
       style="fill:none;fill-rule:evenodd;stroke:#000000;stroke-width:1px;stroke-linecap:butt;stroke-linejoin:miter;stroke-opacity:1"
       d="m 520,898.07649 c 1.90476,3.80952 3.52296,7.77636 5.71429,11.42857 1.38591,2.30986 4.5096,3.30493 5.71428,5.71429 0.89789,1.79578 -0.89789,9.63279 0,11.42857 1.20468,2.40935 4.50961,3.30493 5.71429,5.71428 0.42591,0.85184 0,1.90477 0,2.85715 0,0.95238 0,1.90476 0,2.85714 0,2.0426 -0.48752,15.68032 0,17.14286 0.85183,2.5555 4.50961,3.30493 5.71428,5.71428 0.91289,1.82578 -0.76657,9.12886 0,11.42857 6.89849,20.69548 -0.82372,-4.50459 5.71429,8.57143 1.14286,2.28572 -1.14286,6.28572 0,8.57143 1.20468,2.40936 4.86245,3.15878 5.71428,5.71429 0.52669,1.58005 0,14.26555 0,17.14285 0,0.9524 0,1.9048 0,2.8571 0,0.9524 -0.42591,2.0054 0,2.8572 1.20468,2.4093 4.86245,3.1588 5.71429,5.7143 0.60234,1.807 0,3.8095 0,5.7143 0,2.0426 -0.48751,15.6803 0,17.1428 0.85184,2.5555 4.50961,3.305 5.71429,5.7143 0.42591,0.8518 0,1.9048 0,2.8571 0,0.9524 0,1.9048 0,2.8572 0,0.9524 0,3.8095 0,2.8571 0,-1.9047 0,-3.8095 0,-5.7143 0,-0.9523 0.42591,-2.0053 0,-2.8571 -0.60234,-1.2047 -1.90477,-1.9048 -2.85715,-2.8571 -0.95238,-0.9524 -1.90476,-1.9048 -2.85714,-2.8572"
       id="path3399"
       inkscape:connector-curvature="0" />
    <path
       style="fill:none;fill-rule:evenodd;stroke:#000000;stroke-width:1px;stroke-linecap:butt;stroke-linejoin:miter;stroke-opacity:1"
       d="m 520,926.64792 c -1.04746,-13.30343 -2.45194,-11.42857 5.71429,-11.42857 0.95238,0 2.1837,0.67343 2.85714,0 0.67343,-0.67344 -0.42592,-2.00531 0,-2.85715 5.94537,-11.89074 -0.19725,3.05439 5.71428,-2.85714 0.67344,-0.67343 0,-1.90476 0,-2.85714 0,-0.95238 0,-1.90476 0,-2.85714 5.71429,0 11.50632,-0.93943 17.14286,0 0.93942,0.15657 -0.42592,2.0053 0,2.85714 0.60234,1.20468 1.65247,2.2548 2.85714,2.85714 0.85184,0.42592 2.00531,-0.42592 2.85715,0 2.40935,1.20468 3.30493,4.50961 5.71428,5.71429 0.85184,0.42592 2.00531,-0.42592 2.85715,0 2.40935,1.20467 3.30493,4.50961 5.71428,5.71428 0.85184,0.42592 2.18371,-0.67343 2.85714,0 0.58411,0.58411 -0.56641,7.4386 0,8.57143 1.20468,2.40936 4.50961,3.30493 5.71429,5.71429 0.42592,0.85183 -0.67344,2.18371 0,2.85714 5.91153,5.91153 -0.23109,-9.0336 5.71429,2.85714 0.63568,1.27137 -0.43561,10.12175 0,11.42857 0.85183,2.55551 4.5096,3.30494 5.71428,5.71429 0.12178,0.24356 0.12178,11.18501 0,11.42857 -0.60234,1.20468 -1.65246,2.25481 -2.85714,2.85714 -0.85184,0.42592 -2.18371,-0.67343 -2.85714,0 -0.67344,0.67344 0.30117,1.95364 0,2.85715 -6.8985,20.69547 0.82372,-4.50459 -5.71429,8.57143 -0.42592,0.85183 0.42592,2.0053 0,2.85714 -2.80435,5.60869 -5.4297,1.28628 -8.57143,2.85714 -2.40935,1.20468 -3.30493,4.50961 -5.71428,5.71429 -0.86953,0.43476 -7.2847,0 -8.57143,0"
       id="path3401"
       inkscape:connector-curvature="0" />
    <path
       style="fill:none;fill-rule:evenodd;stroke:#000000;stroke-width:1px;stroke-linecap:butt;stroke-linejoin:miter;stroke-opacity:1"
       d="m 602.85714,809.50506 c -1.90476,3.80953 -4.13246,7.47403 -5.71428,11.42857 -0.70741,1.76853 0,3.80953 0,5.71429 0,4.7619 0,9.52381 0,14.28571 0,14.28572 0,28.57143 0,42.85715 0,0.95238 0,1.90476 0,2.85714 0,0.95238 -0.52829,2.06471 0,2.85714 2.98843,4.48266 8.44013,6.94592 11.42857,11.42857 0.52828,0.79243 0,1.90477 0,2.85715 0,1.90476 0,3.80952 0,5.71428 0,5.71429 0,11.42857 0,17.14286 0,0.95238 0,1.90476 0,2.85714 0,0.95238 -0.42592,2.00531 0,2.85714 1.20468,2.40936 4.86245,3.15878 5.71428,5.71429 0.74457,2.23369 -0.78614,15.57057 0,17.14286 6.53801,13.07602 -1.1842,-12.12405 5.71429,8.57143 0.92369,2.77108 -0.94802,15.2468 0,17.14285 5.94537,11.89075 -0.19724,-3.05438 5.71429,2.85715 0.63711,0.63711 -0.56639,12.58654 0,14.28571 0.85183,2.55551 4.5096,3.30491 5.71428,5.71431 1.57087,3.1417 -2.75155,5.7671 2.85714,8.5714 0.85184,0.4259 2.18371,-0.6734 2.85715,0 0.003,0 -0.004,8.5585 0,8.5714 0.27894,0.8369 3.80952,4.7619 5.71428,2.8572 0.67344,-0.6735 -0.42591,-2.0053 0,-2.8572 5.94537,-11.8907 -0.19724,3.0544 5.71429,-2.8571 0.003,0 -0.004,-8.5585 0,-8.5714 0.85183,-2.5555 4.50961,-3.305 5.71428,-5.7143 0.42592,-0.8519 -0.67343,-2.1837 0,-2.8572 3.80953,-3.80949 2.7416,6.0609 5.71429,-2.85711 0.60234,-1.80702 -0.60234,-3.90727 0,-5.71429 0.85184,-2.5555 4.50961,-3.30493 5.71429,-5.71428 0.42591,-0.85184 -0.42592,-2.00531 0,-2.85714 0.60233,-1.20468 1.90476,-1.90477 2.85714,-2.85715 1.90476,-1.90476 4.22007,-3.47296 5.71428,-5.71428 0.52829,-0.79243 0,-1.90476 0,-2.85715 0,-0.95238 0,-1.90476 0,-2.85714 0,-4.7619 0,-9.52381 0,-14.28571 0,-0.95238 -0.67343,-2.18371 0,-2.85715 1.70752,-1.70751 5.71429,3.08823 5.71429,-2.85714 0,-3.53058 -4.00677,-2.85714 -5.71429,-2.85714"
       id="path3403"
       inkscape:connector-curvature="0" />
    <path
       style="fill:none;fill-rule:evenodd;stroke:#000000;stroke-width:1px;stroke-linecap:butt;stroke-linejoin:miter;stroke-opacity:1"
       d="m 565.71429,858.07649 c 6.66666,0 13.33333,0 20,0 0.95238,0 2.85714,-0.95238 2.85714,0 0,0.95238 -3.80953,0 -2.85714,0 1.90476,0 3.80952,0 5.71428,0 1.28674,0 7.7019,0.43476 8.57143,0 11.89074,-5.94537 -3.05439,0.19724 2.85714,-5.71429 0.67344,-0.67343 1.95364,0.30117 2.85715,0 20.69547,-6.89849 -4.5046,0.82373 8.57142,-5.71428 0.85184,-0.42592 1.90477,0 2.85715,0"
       id="path3405"
       inkscape:connector-curvature="0" />
  </g>
</svg>
