<svg xmlns="http://www.w3.org/2000/svg" width="1630px" height="810px" xmlns:xlink="http://www.w3.org/1999/xlink" viewBox="0 0  1630 810" preserveAspectRatio="xMidYMid meet" ><defs id="svgEditorDefs"><polygon id="svgEditorShapeDefs" fill="khaki" stroke="black" style="vector-effect: non-scaling-stroke; stroke-width: 1px;"/></defs><rect id="svgEditorBackground" x="0" y="0" width="1630" height="810" style="fill: none; stroke: none;"/><text fill="black" style="font-family: Arial; font-size: 20px;" x="259" y="60" id="e1_texte"></text><path d="M319,291l0,-5l0,-2l0,-6l0,-1l0,-1l0,-6l0,-3l0,-11l2,-2l1,-1l6,-10l2,-2l1,-3l8,-13l3,-3l2,-3l13,-13l2,-2l2,-2l13,-12l2,-2l2,-2l14,-6l2,-2l2,-2l3,-2l14,-4l3,-2l3,-2l15,-4l3,0l3,-2l3,-2l22,0l40,0l30,0l30,0l5,0l15,0l30,8l5,0l5,2l30,10l30,12l20,8l27,14l3,2l14,14l14,14l2,2l9,11l10,16l12,27l8,30l2,5l4,20l4,30l0,5l4,25l0,3l0,17l0,2l-2,9l-2,2l-4,14l-2,2l-9,12l0,2l-9,10l-10,10l-15,12l-3,2l-17,11l-3,2l-5,2l-30,10l-5,2l-20,7l-5,2l-5,2l-30,6l-5,2l-30,2l-5,0l-30,0l-20,0l-30,0l-5,0l-30,-4l-23,-8l-2,-2l-8,-2l-11,-5l-7,-8l-7,-12l-2,-3l-10,-18l0,-3l-16,-30l0,-3l0,-5l-2,-5l-6,-19l0,-3l0,-3l-4,-17l0,-3l0,-8l0,-9l0,-3l0,-3l0,-15l2,-3l2,-2l8,-15l6,-11l2,-3l8,-7l1,-2l14,-11l2,0l13,-4l2,-2l3,-1l9,0l1,0l2,0l8,3l2,0l14,10l14,13l3,3l15,16l3,3l3,3l18,23l15,30l2,5l4,10l2,5l13,30l0,2l4,16l0,12l-4,11l-8,8l-7,4l-2,0l-15,3l-2,0l-19,0l-18,-8l-3,-2l-17,-12l-16,-15l-3,-2l-15,-19l-8,-17l0,-3l0,-3l0,-18l0,-2l6,-16l2,-3l11,-11l2,-2l3,-2l19,-10l3,0l21,-4l3,0l35,16l5,2l5,3l35,20l5,3l13,15l2,3l15,26l0,19l2,2l2,14l0,9l-4,4l-1,-1l0,-1l0,-1l-2,-1l-2,-2l0,-3l0,-3l-4,-17l0,-3l0,-5l0,-35l0,-5l9,-35l2,-5l2,-5l18,-35l3,-2l3,-3l3,-3l18,-12l5,-2l5,0l5,0l30,-8l18,0l2,0l10,4l1,0l1,0l2,0l0,1" stroke="black" style="fill: none; stroke-width: 1px;" id="e16_freepath"/><path d="M-4,-2.5v5q0,1,3.9231998920440674,1.7039999961853027t8.556806564331055,-5.211198806762695v-1.4928011894226074q-4.480006217956543,1,-8.480006217956543,1t-4,-1q0,-1,3.9232001304626465,-2.100800037384033t4.0767998695373535,2.100800037384033t-0.7744004726409912,-2.379201889038086t-6.918399333953857,2.4176018238067627Z" style="vector-effect: non-scaling-stroke; stroke-width: 1px;" stroke="black" id="e247_shape" transform="matrix(78.125, 0, 0, 78.125, 468.5, 459.438)" fill="blue"/><path d="M-2,2h-2l4,2l4,-2h-2v-4h2l-4,-2l-4,2h2Z" style="vector-effect: non-scaling-stroke; stroke-width: 1px;" stroke="black" id="e295_shape" transform="matrix(91.375, 0, 0, 91.375, 575.5, 433.5)" fill="silver"/><path d="M-5.578699111938477,-2.476694107055664v6.864445209503174c5.578699111938477,0.6122488975524902,1.9227631092071533,0.16325092315673828,3.790133237838745,3.8191866874694824v-13.951815605163574Z" style="vector-effect: non-scaling-stroke; stroke-width: 1px;" stroke="black" id="e318_shape" transform="matrix(36.1057, 0, 0, 36.1057, 1383.42, 245.423)" fill="maroon"/><ellipse id="e450_ellipse" cx="79" cy="75" style="stroke-width: 1px;" stroke="black" rx="816" ry="423" fill="red"/><text fill="black" style="font-family: Arial; font-size: 20px;" x="141" y="107" id="e464_texte">the life of kanye</text></svg>